<?xml version="1.0" encoding="UTF-8" standalone="no"?>
<svg
   xmlns:dc="http://purl.org/dc/elements/1.1/"
   xmlns:cc="http://creativecommons.org/ns#"
   xmlns:rdf="http://www.w3.org/1999/02/22-rdf-syntax-ns#"
   xmlns:svg="http://www.w3.org/2000/svg"
   xmlns="http://www.w3.org/2000/svg"
   version="1.1"
   id="svg3435"
   viewBox="0 0 711.22104 713.11872"
   height="201.25795mm"
   width="200.72238mm">
  <defs
     id="defs3437" />
  <metadata
     id="metadata3440">
    <rdf:RDF>
      <cc:Work
         rdf:about="">
        <dc:format>image/svg+xml</dc:format>
        <dc:type
           rdf:resource="http://purl.org/dc/dcmitype/StillImage" />
        <dc:title></dc:title>
      </cc:Work>
    </rdf:RDF>
  </metadata>
  <g
     transform="translate(-14.979181,-10.08853)"
     id="layer1">
    <path
       id="path3401"
       d="M 364.73858,721.25051 C 322.30843,716.23448 280.11771,705.85975 240.40401,690.10216 209.2008,677.7214 180.34887,659.69913 152.50999,640.93959 125.97645,623.05963 97.55089,605.92353 77.629352,580.88648 49.852874,545.97742 27.772013,504.17517 19.493426,460.33867 11.979078,420.54927 17.494146,378.11626 28.723047,339.21161 42.574446,291.22085 68.652428,246.6048 98.707106,206.70879 140.70463,150.95923 199.00863,102.00423 249.6922,61.623402 235.07846,81.654277 227.40746,87.500094 216.70415,100.7999 c -27.43118,34.08557 -60.55259,64.86715 -80.00244,104.05898 -16.86403,33.98131 -28.5798,71.89551 -29.90464,109.80817 -1.3838,39.59852 4.58092,81.59062 23.15215,116.59158 15.83386,29.84187 44.72277,51.15564 71.24765,72.0764 27.50575,21.69439 57.80515,40.391 89.89819,54.43555 43.4455,19.01262 89.36394,36.6524 136.70824,39.39259 52.57909,3.04313 106.90873,-6.50171 155.85734,-25.94036 30.92117,-12.27961 56.13743,-35.8238 82.87426,-55.62421 20.25001,-14.99659 58.60232,-47.75397 58.60232,-47.75397 0,0 -27.92818,39.29067 -42.39962,58.56186 -14.80862,19.72014 -29.12632,39.89178 -45.45072,58.37665 -24.73621,28.00975 -47.58778,59.45175 -79.26199,79.27993 -49.1593,30.77383 -107.28097,46.99025 -164.42598,56.89527 -9.47927,1.64303 -19.30626,1.42164 -28.86033,0.29217 z m 6.97815,-705.559309 16.39206,0 c 1.87626,28.151677 -0.81956,86.182769 0,114.389109 l 37.00237,-52.015663 c 19.34691,-30.731888 49.21179,-55.950696 83.29359,-63.77297 37.15669,-8.5280117 81.09443,0.70279 112.03782,22.970478 33.54658,24.140924 75.73996,68.214765 62.19518,107.262065 -0.0818,0.23487 26.60414,-17.12994 -0.69329,0.27492 l -85.40837,87.29184 c -8.59279,-23.03561 -15.84821,-47.57902 -31.00792,-67.04619 -22.29342,-32.46633 -56.81124,-52.14383 -97.75219,-54.20907 -29.95866,-1.11709 -56.72883,3.858 -79.66719,23.87964 l 0,258.1545 81.11659,85.22147 -84.20714,89.37016 -86.25224,-87.7617 72.95073,-85.18743 m -138.76358,112.642 -3.25808,-88.45451 -1.26091,-102.59018 -0.0731,-130.52609 -0.0263,-81.07386 C 255.34119,82.253214 303.96723,47.089567 328.86037,22.396601 l 0,84.564189 0,131.06201 0,88.50585 0,86.66423 c -32.32301,30.36833 -59.83512,66.82314 -93.4386,95.78599 z"
       style="fill:#000000" />
  </g>
</svg>
